<svg xmlns="http://www.w3.org/2000/svg" xmlns:xlink="http://www.w3.org/1999/xlink" viewBox="0 0 600 450"><defs><style>.cls-1{fill:none;}.cls-2{isolation:isolate;}.cls-3{fill:#020230;}.cls-4{opacity:0.3;}.cls-19,.cls-20,.cls-4,.cls-5{mix-blend-mode:lighten;}.cls-5{fill:url(#Áåçûìÿííûé_ãðàäèåíò_144);}.cls-6{fill:url(#Áåçûìÿííûé_ãðàäèåíò_144-2);}.cls-7{fill:url(#Áåçûìÿííûé_ãðàäèåíò_144-3);}.cls-8{fill:url(#Áåçûìÿííûé_ãðàäèåíò_144-4);}.cls-9{fill:url(#Áåçûìÿííûé_ãðàäèåíò_144-5);}.cls-10{fill:url(#Áåçûìÿííûé_ãðàäèåíò_144-6);}.cls-11{fill:url(#Áåçûìÿííûé_ãðàäèåíò_144-7);}.cls-12{fill:url(#Áåçûìÿííûé_ãðàäèåíò_144-8);}.cls-13{fill:url(#Áåçûìÿííûé_ãðàäèåíò_144-9);}.cls-14{fill:url(#Áåçûìÿííûé_ãðàäèåíò_144-10);}.cls-15{fill:url(#Áåçûìÿííûé_ãðàäèåíò_144-11);}.cls-16{fill:#112564;}.cls-17{fill:url(#Áåçûìÿííûé_ãðàäèåíò_144-12);}.cls-18{clip-path:url(#clip-path);}.cls-19,.cls-33,.cls-36,.cls-57{opacity:0.8;}.cls-20{fill:url(#Áåçûìÿííûé_ãðàäèåíò_144-13);}.cls-21{fill:url(#Áåçûìÿííûé_ãðàäèåíò_144-14);}.cls-22{fill:url(#Áåçûìÿííûé_ãðàäèåíò_144-15);}.cls-23{fill:url(#Áåçûìÿííûé_ãðàäèåíò_144-16);}.cls-24{fill:url(#Áåçûìÿííûé_ãðàäèåíò_144-17);}.cls-25{fill:url(#Áåçûìÿííûé_ãðàäèåíò_144-18);}.cls-26{fill:url(#Áåçûìÿííûé_ãðàäèåíò_144-19);}.cls-27{fill:url(#Áåçûìÿííûé_ãðàäèåíò_144-20);}.cls-28{fill:url(#Áåçûìÿííûé_ãðàäèåíò_144-21);}.cls-29{fill:url(#Áåçûìÿííûé_ãðàäèåíò_144-22);}.cls-30{fill:url(#Áåçûìÿííûé_ãðàäèåíò_144-23);}.cls-31{fill:url(#Áåçûìÿííûé_ãðàäèåíò_144-24);}.cls-32{fill:url(#Áåçûìÿííûé_ãðàäèåíò_144-25);}.cls-33{fill:url(#Áåçûìÿííûé_ãðàäèåíò_50);}.cls-34{fill:#000016;}.cls-34,.cls-37,.cls-56{opacity:0.4;}.cls-35,.cls-56,.cls-57{fill:#03a7d3;}.cls-36,.cls-37,.cls-38,.cls-39{fill:#172f78;}.cls-38{opacity:0.6;}.cls-40{fill:url(#Áåçûìÿííûé_ãðàäèåíò_354);}.cls-41{fill:url(#Áåçûìÿííûé_ãðàäèåíò_346);}.cls-42{fill:#fff;}.cls-43{fill:#11203c;}.cls-44{fill:url(#Áåçûìÿííûé_ãðàäèåíò_354-2);}.cls-45{fill:url(#Áåçûìÿííûé_ãðàäèåíò_346-2);}.cls-46{fill:url(#Áåçûìÿííûé_ãðàäèåíò_515);}.cls-47{fill:url(#Áåçûìÿííûé_ãðàäèåíò_19);}.cls-48{fill:url(#Áåçûìÿííûé_ãðàäèåíò_515-2);}.cls-49,.cls-51{opacity:0.5;}.cls-50,.cls-51{fill:#380031;}.cls-52{fill:url(#Áåçûìÿííûé_ãðàäèåíò_354-3);}.cls-53{fill:url(#Áåçûìÿííûé_ãðàäèåíò_346-3);}.cls-54{fill:url(#Áåçûìÿííûé_ãðàäèåíò_354-4);}.cls-55{fill:url(#Áåçûìÿííûé_ãðàäèåíò_346-4);}</style><linearGradient id="Áåçûìÿííûé_ãðàäèåíò_144" x1="149.91" y1="-34.21" x2="-2.61" y2="84.77" gradientUnits="userSpaceOnUse"><stop offset="0" stop-color="#183372"/><stop offset="1" stop-color="#020230"/></linearGradient><linearGradient id="Áåçûìÿííûé_ãðàäèåíò_144-2" x1="672.09" y1="389.33" x2="465.14" y2="325.31" xlink:href="#Áåçûìÿííûé_ãðàäèåíò_144"/><linearGradient id="Áåçûìÿííûé_ãðàäèåíò_144-3" x1="64.73" y1="89.3" x2="329.04" y2="89.3" xlink:href="#Áåçûìÿííûé_ãðàäèåíò_144"/><linearGradient id="Áåçûìÿííûé_ãðàäèåíò_144-4" x1="-11.27" y1="209.16" x2="213.26" y2="209.16" xlink:href="#Áåçûìÿííûé_ãðàäèåíò_144"/><linearGradient id="Áåçûìÿííûé_ãðàäèåíò_144-5" x1="429.26" y1="207.02" x2="373.56" y2="337.06" xlink:href="#Áåçûìÿííûé_ãðàäèåíò_144"/><linearGradient id="Áåçûìÿííûé_ãðàäèåíò_144-6" x1="212.76" y1="221.29" x2="399.19" y2="221.29" xlink:href="#Áåçûìÿííûé_ãðàäèåíò_144"/><linearGradient id="Áåçûìÿííûé_ãðàäèåíò_144-7" x1="31.27" y1="299.75" x2="295.37" y2="299.75" xlink:href="#Áåçûìÿííûé_ãðàäèåíò_144"/><linearGradient id="Áåçûìÿííûé_ãðàäèåíò_144-8" x1="119.27" y1="376.92" x2="383.37" y2="376.92" xlink:href="#Áåçûìÿííûé_ãðàäèåíò_144"/><linearGradient id="Áåçûìÿííûé_ãðàäèåíò_144-9" x1="668.45" y1="187.47" x2="501" y2="62.55" xlink:href="#Áåçûìÿííûé_ãðàäèåíò_144"/><linearGradient id="Áåçûìÿííûé_ãðàäèåíò_144-10" x1="214.04" y1="57.24" x2="378.95" y2="57.24" xlink:href="#Áåçûìÿííûé_ãðàäèåíò_144"/><linearGradient id="Áåçûìÿííûé_ãðàäèåíò_144-11" x1="586.2" y1="-47.94" x2="404.91" y2="55.87" xlink:href="#Áåçûìÿííûé_ãðàäèåíò_144"/><linearGradient id="Áåçûìÿííûé_ãðàäèåíò_144-12" x1="-6.97" y1="483.79" x2="98.42" y2="361.59" xlink:href="#Áåçûìÿííûé_ãðàäèåíò_144"/><clipPath id="clip-path"><rect class="cls-1" x="29.67" y="34.28" width="540.67" height="379.95" rx="26.63"/></clipPath><linearGradient id="Áåçûìÿííûé_ãðàäèåíò_144-13" x1="1586.78" y1="4.14" x2="1452.64" y2="108.79" gradientTransform="translate(2021.93 450) rotate(180)" xlink:href="#Áåçûìÿííûé_ãðàäèåíò_144"/><linearGradient id="Áåçûìÿííûé_ãðàäèåíò_144-14" x1="2055.05" y1="368.09" x2="1868.56" y2="310.4" gradientTransform="translate(2021.93 450) rotate(180)" xlink:href="#Áåçûìÿííûé_ãðàäèåíò_144"/><linearGradient id="Áåçûìÿííûé_ãðàäèåíò_144-15" x1="1509.92" y1="111.17" x2="1748.09" y2="111.17" gradientTransform="translate(2021.93 450) rotate(180)" xlink:href="#Áåçûìÿííûé_ãðàäèåíò_144"/><linearGradient id="Áåçûìÿííûé_ãðàäèåíò_144-16" x1="1441.44" y1="212.37" x2="1643.77" y2="212.37" gradientTransform="translate(2021.93 450) rotate(180)" xlink:href="#Áåçûìÿííûé_ãðàäèåíò_144"/><linearGradient id="Áåçûìÿííûé_ãðàäèåíò_144-17" x1="1835.31" y1="208.45" x2="1787.88" y2="319.19" gradientTransform="translate(2021.93 450) rotate(180)" xlink:href="#Áåçûìÿííûé_ãðàäèåíò_144"/><linearGradient id="Áåçûìÿííûé_ãðàäèåíò_144-18" x1="1643.31" y1="222.61" x2="1811.31" y2="222.61" gradientTransform="translate(2021.93 450) rotate(180)" xlink:href="#Áåçûìÿííûé_ãðàäèåíò_144"/><linearGradient id="Áåçûìÿííûé_ãðàäèåíò_144-19" x1="1479.77" y1="288.86" x2="1717.76" y2="288.86" gradientTransform="translate(2021.93 450) rotate(180)" xlink:href="#Áåçûìÿííûé_ãðàäèåíò_144"/><linearGradient id="Áåçûìÿííûé_ãðàäèåíò_144-20" x1="1559.07" y1="354.01" x2="1797.05" y2="354.01" gradientTransform="translate(2021.93 450) rotate(180)" xlink:href="#Áåçûìÿííûé_ãðàäèåíò_144"/><linearGradient id="Áåçûìÿííûé_ãðàäèåíò_144-21" x1="2048.55" y1="196.31" x2="1901.09" y2="86.31" gradientTransform="translate(2021.93 450) rotate(180)" xlink:href="#Áåçûìÿííûé_ãðàäèåíò_144"/><linearGradient id="Áåçûìÿííûé_ãðàäèåíò_144-22" x1="1644.47" y1="84.1" x2="1793.07" y2="84.1" gradientTransform="translate(2021.93 450) rotate(180)" xlink:href="#Áåçûìÿííûé_ãðàäèåíò_144"/><linearGradient id="Áåçûìÿííûé_ãðàäèåíò_144-23" x1="1979.68" y1="-7.35" x2="1818.78" y2="84.79" gradientTransform="translate(2021.93 450) rotate(180)" xlink:href="#Áåçûìÿííûé_ãðàäèåíò_144"/><linearGradient id="Áåçûìÿííûé_ãðàäèåíò_144-24" x1="1384.91" y1="274.07" x2="1530.32" y2="274.07" gradientTransform="translate(2021.93 450) rotate(180)" xlink:href="#Áåçûìÿííûé_ãðàäèåíò_144"/><linearGradient id="Áåçûìÿííûé_ãðàäèåíò_144-25" x1="1447.22" y1="447.81" x2="1542.18" y2="337.69" gradientTransform="translate(2021.93 450) rotate(180)" xlink:href="#Áåçûìÿííûé_ãðàäèåíò_144"/><linearGradient id="Áåçûìÿííûé_ãðàäèåíò_50" x1="300" y1="413.87" x2="300" y2="33.92" gradientUnits="userSpaceOnUse"><stop offset="0" stop-color="#020230"/><stop offset="0.27" stop-color="#030534"/><stop offset="0.56" stop-color="#070d40"/><stop offset="0.84" stop-color="#0d1b55"/><stop offset="1" stop-color="#112564"/></linearGradient><linearGradient id="Áåçûìÿííûé_ãðàäèåíò_354" x1="391.47" y1="221.09" x2="460.2" y2="221.09" gradientUnits="userSpaceOnUse"><stop offset="0" stop-color="#01c8ef"/><stop offset="0.13" stop-color="#04b1dd"/><stop offset="0.55" stop-color="#0e6ba7"/><stop offset="0.85" stop-color="#154085"/><stop offset="1" stop-color="#172f78"/></linearGradient><radialGradient id="Áåçûìÿííûé_ãðàäèåíò_346" cx="379.29" cy="174.28" r="153.38" gradientUnits="userSpaceOnUse"><stop offset="0" stop-color="#01c8ef"/><stop offset="0.14" stop-color="#03bae4"/><stop offset="0.4" stop-color="#0895c8"/><stop offset="0.76" stop-color="#115a9a"/><stop offset="1" stop-color="#172f78"/></radialGradient><linearGradient id="Áåçûìÿííûé_ãðàäèåíò_354-2" x1="243.69" y1="136.18" x2="312.42" y2="136.18" xlink:href="#Áåçûìÿííûé_ãðàäèåíò_354"/><radialGradient id="Áåçûìÿííûé_ãðàäèåíò_346-2" cx="231.51" cy="89.37" r="153.38" xlink:href="#Áåçûìÿííûé_ãðàäèåíò_346"/><linearGradient id="Áåçûìÿííûé_ãðàäèåíò_515" x1="-245.36" y1="159.07" x2="-136.05" y2="159.07" gradientTransform="translate(522.91)" gradientUnits="userSpaceOnUse"><stop offset="0" stop-color="#b6246e"/><stop offset="1" stop-color="#f9636b"/></linearGradient><linearGradient id="Áåçûìÿííûé_ãðàäèåíò_19" x1="-223.91" y1="212.94" x2="-162.53" y2="212.94" gradientTransform="translate(522.91)" gradientUnits="userSpaceOnUse"><stop offset="0" stop-color="#f9636b"/><stop offset="0.32" stop-color="#b7256e"/><stop offset="1" stop-color="#b6246e"/></linearGradient><linearGradient id="Áåçûìÿííûé_ãðàäèåíò_515-2" x1="-154.44" y1="206.22" x2="-271.4" y2="212.47" xlink:href="#Áåçûìÿííûé_ãðàäèåíò_515"/><linearGradient id="Áåçûìÿííûé_ãðàäèåíò_354-3" x1="243.77" y1="306.01" x2="312.49" y2="306.01" xlink:href="#Áåçûìÿííûé_ãðàäèåíò_354"/><radialGradient id="Áåçûìÿííûé_ãðàäèåíò_346-3" cx="231.58" cy="259.19" r="153.38" xlink:href="#Áåçûìÿííûé_ãðàäèåíò_346"/><linearGradient id="Áåçûìÿííûé_ãðàäèåíò_354-4" x1="95.68" y1="221.09" x2="164.4" y2="221.09" xlink:href="#Áåçûìÿííûé_ãðàäèåíò_354"/><radialGradient id="Áåçûìÿííûé_ãðàäèåíò_346-4" cx="83.49" cy="174.28" r="153.38" xlink:href="#Áåçûìÿííûé_ãðàäèåíò_346"/></defs><g class="cls-2"><g id="Ñëîé_1" data-name="Ñëîé 1"><rect class="cls-3" width="600" height="450"/><g class="cls-4"><polygon class="cls-5" points="0 0 0 165.47 210.03 0 0 0"/><polygon class="cls-6" points="475.69 178.59 383.37 450 600 450 600 272.81 475.69 178.59"/><polygon class="cls-7" points="240.03 0 210.03 0 64.73 114.48 475.69 178.59 240.03 0"/><polygon class="cls-8" points="64.73 114.48 119.27 303.83 289.26 149.51 64.73 114.48"/><polygon class="cls-9" points="334.22 293.07 383.37 450 475.69 178.59 334.22 293.07"/><polygon class="cls-10" points="289.26 149.51 334.22 293.07 475.69 178.59 289.26 149.51"/><polygon class="cls-11" points="289.26 149.51 119.27 303.83 383.37 450 289.26 149.51"/><polygon class="cls-12" points="119.27 303.83 161.37 450 383.37 450 119.27 303.83"/><polygon class="cls-13" points="391.09 114.48 600 272.81 600 0 391.09 114.48"/><polygon class="cls-14" points="240.03 0 391.09 114.48 404.95 0 240.03 0"/><polygon class="cls-15" points="404.95 0 391.09 114.48 600 0 404.95 0"/><polygon class="cls-16" points="64.73 114.48 0 165.47 0 314.3 161.37 450 64.73 114.48"/><polygon class="cls-17" points="0 314.3 0 450 161.37 450 0 314.3"/></g><g class="cls-18"><g class="cls-19"><polygon class="cls-20" points="570.33 414.23 570.33 274.51 381.07 414.23 570.33 414.23"/><polygon class="cls-21" points="141.69 263.44 224.88 34.28 29.67 34.28 29.67 183.89 141.69 263.44"/><polygon class="cls-22" points="354.04 414.23 381.07 414.23 512.01 317.57 141.69 263.44 354.04 414.23"/><polygon class="cls-23" points="512.01 317.57 462.86 157.69 309.68 287.99 512.01 317.57"/><polygon class="cls-24" points="269.16 166.78 224.88 34.28 141.69 263.44 269.16 166.78"/><polygon class="cls-25" points="309.68 287.99 269.16 166.78 141.69 263.44 309.68 287.99"/><polygon class="cls-26" points="309.68 287.99 462.86 157.69 224.88 34.28 309.68 287.99"/><polygon class="cls-27" points="462.86 157.69 424.92 34.28 224.88 34.28 462.86 157.69"/><polygon class="cls-28" points="217.92 317.57 29.67 183.89 29.67 414.23 217.92 317.57"/><polygon class="cls-29" points="354.04 414.23 217.92 317.57 205.43 414.23 354.04 414.23"/><polygon class="cls-30" points="205.43 414.23 217.92 317.57 29.67 414.23 205.43 414.23"/><polygon class="cls-31" points="512.01 317.57 570.33 274.51 570.33 148.86 424.92 34.28 512.01 317.57"/><polygon class="cls-32" points="570.33 148.86 570.33 34.28 424.92 34.28 570.33 148.86"/></g></g><rect class="cls-33" x="29.67" y="33.92" width="540.67" height="379.95" rx="26.63"/><path class="cls-34" d="M543.7,413.87H56.3a26.63,26.63,0,0,1-26.63-26.63V406.9A26.63,26.63,0,0,0,56.3,433.53H543.7a26.63,26.63,0,0,0,26.63-26.63V387.24A26.63,26.63,0,0,1,543.7,413.87Z"/><path class="cls-35" d="M543.7,414.5H56.3a26.93,26.93,0,0,1-26.9-26.9V60.91A26.93,26.93,0,0,1,56.3,34H543.7a26.94,26.94,0,0,1,26.91,26.9V387.6A26.94,26.94,0,0,1,543.7,414.5ZM56.3,34.55A26.39,26.39,0,0,0,29.94,60.91V387.6A26.39,26.39,0,0,0,56.3,414H543.7a26.39,26.39,0,0,0,26.36-26.36V60.91A26.39,26.39,0,0,0,543.7,34.55Z"/><path class="cls-36" d="M312.61,287.94a3,3,0,1,1-3-3A3,3,0,0,1,312.61,287.94Z"/><path class="cls-37" d="M219.14,317.32a2.15,2.15,0,1,1-2.15-2.15A2.15,2.15,0,0,1,219.14,317.32Z"/><path class="cls-37" d="M221.14,317.32a4.15,4.15,0,1,1-4.15-4.14A4.15,4.15,0,0,1,221.14,317.32Z"/><circle class="cls-37" cx="511.88" cy="317.44" r="2.99"/><circle class="cls-37" cx="268.96" cy="166.9" r="1.67"/><circle class="cls-38" cx="84.01" cy="128.08" r="1.67"/><circle class="cls-38" cx="168.84" cy="104.28" r="2.47"/><path class="cls-36" d="M169.86,104.28a1,1,0,1,1-1-1A1,1,0,0,1,169.86,104.28Z"/><circle class="cls-37" cx="288.34" cy="142.3" r="6.6"/><circle class="cls-36" cx="288.34" cy="142.3" r="2.74"/><rect class="cls-37" x="366.93" y="365.02" width="160.76" height="0.54" transform="translate(-129.55 337.76) rotate(-36.5)"/><rect class="cls-38" x="338.97" y="-35.2" width="0.54" height="257.71" transform="translate(99.81 351.58) rotate(-62.56)"/><polygon class="cls-39" points="302.9 190.14 287.95 141.97 288.38 142.03 410.43 159.13 410.36 159.66 288.73 142.63 303.42 189.98 302.9 190.14"/><polygon class="cls-38" points="352.35 413.36 216.97 317.52 40.33 409.06 40.08 408.57 217.01 316.89 217.15 316.98 352.66 412.92 352.35 413.36"/><rect class="cls-38" x="85.4" y="154.97" width="0.54" height="137.39" transform="matrix(0.58, -0.82, 0.82, 0.58, -146.29, 164.02)"/><rect class="cls-39" x="231.01" y="217.82" width="0.57" height="11.14" transform="translate(-90.22 228.98) rotate(-45)"/><rect class="cls-35" x="238.06" y="228.65" width="0.57" height="3.57" transform="translate(-93.14 236.03) rotate(-45)"/><rect class="cls-35" x="310.02" y="216.07" width="0.57" height="11.14" transform="translate(-65.84 284.34) rotate(-45)"/><rect class="cls-39" x="316.89" y="226.92" width="0.57" height="3.18" transform="translate(-68.68 291.21) rotate(-45)"/><rect class="cls-39" x="321.03" y="231.06" width="0.57" height="3.18" transform="translate(-70.41 295.25) rotate(-44.99)"/><rect class="cls-39" x="310.18" y="98.56" width="0.57" height="11.14" transform="translate(17.29 250.01) rotate(-45)"/><rect class="cls-35" x="317.05" y="109.41" width="0.57" height="3.18" transform="translate(14.45 256.9) rotate(-45)"/><rect class="cls-35" x="321.19" y="113.55" width="0.57" height="3.18" transform="translate(12.74 261.04) rotate(-45)"/><rect class="cls-35" x="327.39" y="116.82" width="0.57" height="9.03" transform="translate(10.17 267.24) rotate(-45)"/><rect class="cls-39" x="430.89" y="140.7" width="0.57" height="3.57" transform="translate(25.5 346.54) rotate(-44.99)"/><rect class="cls-39" x="413.58" y="119.52" width="0.57" height="11.3" transform="translate(32.71 329.31) rotate(-45)"/><rect class="cls-39" x="212.03" y="114.36" width="0.57" height="3.57" transform="translate(-19.93 184.19) rotate(-45.01)"/><rect class="cls-35" x="204.98" y="103.53" width="0.57" height="11.14" transform="translate(-17.03 177.08) rotate(-45)"/><rect class="cls-39" x="194.71" y="93.18" width="0.57" height="11.3" transform="translate(-12.77 166.83) rotate(-45)"/><rect class="cls-39" x="182.85" y="81.32" width="0.57" height="11.3" transform="translate(-7.86 154.97) rotate(-45)"/><polygon class="cls-35" points="268.5 318.79 268.31 318.67 153.32 252.29 153.71 251.62 268.5 317.9 401.03 240.98 401.42 241.64 268.5 318.79"/><polygon class="cls-35" points="413.19 234.81 412.8 234.15 447.31 214.12 333.85 148.61 334.24 147.95 448.84 214.12 413.19 234.81"/><polygon class="cls-35" points="141.54 245.48 119.69 232.87 252.63 155.71 253.01 156.37 121.22 232.86 141.92 244.82 141.54 245.48"/><path class="cls-35" d="M434.49,259.38a9.56,9.56,0,0,1-4.66-1.11l-31-17.89a3.1,3.1,0,0,1,0-5.82l53.84-31.09a10.32,10.32,0,0,1,9.31,0l31,17.9a3.09,3.09,0,0,1,0,5.82l-53.83,31.08A9.56,9.56,0,0,1,434.49,259.38Zm22.84-56.26a8.75,8.75,0,0,0-4.27,1l-53.84,31.08a2.35,2.35,0,0,0,0,4.49l31,17.9a9.47,9.47,0,0,0,8.55,0l53.83-31.09a2.35,2.35,0,0,0,0-4.49l-31-17.89A8.77,8.77,0,0,0,457.33,203.12Z"/><path class="cls-40" d="M494.79,214.5h0V199.64L476,202.14,462,194a9.89,9.89,0,0,0-8.93,0l-25.2,14.55-30.48,4.07v15.13h0a3.16,3.16,0,0,0,1.83,2.49l31,17.9a9.89,9.89,0,0,0,8.93,0l53.83-31.09a3.15,3.15,0,0,0,1.84-2.48h0Z"/><path class="cls-41" d="M492.94,197l-31-17.9a9.89,9.89,0,0,0-8.93,0l-53.84,31.08c-2.46,1.43-2.46,3.74,0,5.16l31,17.9a9.89,9.89,0,0,0,8.93,0l53.83-31.09C495.41,200.68,495.41,198.37,492.94,197Z"/><path class="cls-42" d="M492.94,201.2l-53.83,31.08a9.83,9.83,0,0,1-8.93,0l-31-17.89a3.41,3.41,0,0,1-1.79-2.13c-.23,1.08.36,2.2,1.79,3l31,17.9a9.89,9.89,0,0,0,8.93,0l53.83-31.09c1.44-.82,2-1.95,1.8-3A3.4,3.4,0,0,1,492.94,201.2Z"/><polygon class="cls-42" points="457.27 228.84 455.8 229.69 455.8 227.99 457.27 227.15 457.27 228.84"/><polygon class="cls-42" points="460.34 227.07 458.87 227.91 458.87 226.22 460.34 225.37 460.34 227.07"/><polygon class="cls-42" points="463.41 225.29 461.94 226.14 461.94 224.45 463.41 223.6 463.41 225.29"/><polygon class="cls-42" points="460.9 230.18 459.43 231.02 459.43 229.33 460.9 228.48 460.9 230.18"/><polygon class="cls-42" points="463.6 228.62 462.14 229.46 462.14 227.77 463.6 226.92 463.6 228.62"/><polygon class="cls-42" points="473.26 219.61 471.79 220.46 471.79 218.76 473.26 217.92 473.26 219.61"/><polygon class="cls-42" points="481.71 214.73 480.25 215.57 480.25 213.88 481.71 213.03 481.71 214.73"/><polygon class="cls-42" points="466.48 223.52 465.01 224.37 465.01 222.68 466.48 221.83 466.48 223.52"/><polygon class="cls-43" points="445.66 192.92 467.56 205.53 465.54 206.7 443.64 194.09 445.66 192.92"/><polygon class="cls-42" points="444.4 194.52 445.78 193.73 466.91 205.9 467.56 205.53 445.66 192.92 443.64 194.09 444.4 194.52"/><polygon class="cls-43" points="451.79 189.37 473.69 201.98 471.67 203.15 449.77 190.53 451.79 189.37"/><polygon class="cls-42" points="450.54 190.97 451.91 190.18 473.05 202.35 473.69 201.98 451.79 189.37 449.77 190.53 450.54 190.97"/><polygon class="cls-43" points="457.93 185.82 479.82 198.43 477.81 199.6 455.91 186.99 457.93 185.82"/><polygon class="cls-42" points="456.67 187.42 458.05 186.63 479.18 198.8 479.82 198.43 457.93 185.82 455.91 186.99 456.67 187.42"/><path class="cls-43" d="M434.25,226.23a3.18,3.18,0,0,1-1.58-.37l-20.85-12a1.23,1.23,0,0,1-.71-1.06,1.62,1.62,0,0,1,.95-1.32l20.37-11.76a3.92,3.92,0,0,1,3.58-.14l20.86,12a1.24,1.24,0,0,1,.7,1.06,1.63,1.63,0,0,1-.94,1.32l-20.38,11.77A4.15,4.15,0,0,1,434.25,226.23Zm-1.31-.84a3.41,3.41,0,0,0,3-.14l20.37-11.76c.43-.25.68-.56.68-.85a.75.75,0,0,0-.44-.59l-20.85-12a3.42,3.42,0,0,0-3,.14l-20.38,11.76c-.43.25-.67.56-.67.85a.73.73,0,0,0,.43.59Z"/><path class="cls-43" d="M424.6,238.66l-17.2-9.94a1.77,1.77,0,0,1-.75-1.42V226c0-.54.34-.8.75-.56l17.2,9.94a1.77,1.77,0,0,1,.75,1.42v1.27C425.35,238.64,425,238.89,424.6,238.66Z"/><path class="cls-35" d="M286.71,174.47a9.56,9.56,0,0,1-4.66-1.11l-31-17.89a3.1,3.1,0,0,1,0-5.82l53.84-31.09a10.32,10.32,0,0,1,9.31,0l31,17.9a3.1,3.1,0,0,1,0,5.82l-53.83,31.08A9.56,9.56,0,0,1,286.71,174.47Zm22.84-56.26a8.73,8.73,0,0,0-4.27,1l-53.84,31.08a2.35,2.35,0,0,0,0,4.49l31,17.9a9.45,9.45,0,0,0,8.54,0l53.84-31.09a2.35,2.35,0,0,0,0-4.49l-31-17.89A8.77,8.77,0,0,0,309.55,118.21Z"/><path class="cls-44" d="M347,129.59h0V114.73l-18.78,2.5-14.06-8.12a9.89,9.89,0,0,0-8.93,0L280,123.66l-30.49,4.07v15.13h0a3.16,3.16,0,0,0,1.83,2.49l31,17.9a9.89,9.89,0,0,0,8.93,0l53.83-31.08a3.18,3.18,0,0,0,1.84-2.49h0Z"/><path class="cls-45" d="M345.16,112l-31-17.9a9.89,9.89,0,0,0-8.93,0L251.4,125.23c-2.46,1.42-2.46,3.73,0,5.15l31,17.9a9.89,9.89,0,0,0,8.93,0l53.83-31.09C347.63,115.77,347.63,113.46,345.16,112Z"/><path class="cls-42" d="M345.16,116.29l-53.83,31.09a9.89,9.89,0,0,1-8.93,0l-31-17.9a3.38,3.38,0,0,1-1.79-2.13c-.23,1.08.36,2.21,1.79,3l31,17.9a9.89,9.89,0,0,0,8.93,0l53.83-31.09c1.44-.82,2-2,1.8-3A3.41,3.41,0,0,1,345.16,116.29Z"/><polygon class="cls-42" points="309.49 143.93 308.02 144.78 308.02 143.08 309.49 142.24 309.49 143.93"/><polygon class="cls-42" points="312.56 142.16 311.09 143.01 311.09 141.31 312.56 140.46 312.56 142.16"/><polygon class="cls-42" points="315.63 140.39 314.16 141.23 314.16 139.54 315.63 138.69 315.63 140.39"/><polygon class="cls-42" points="313.12 145.27 311.65 146.12 311.65 144.42 313.12 143.57 313.12 145.27"/><polygon class="cls-42" points="315.82 143.71 314.35 144.56 314.35 142.86 315.82 142.01 315.82 143.71"/><polygon class="cls-42" points="325.47 134.7 324.01 135.55 324.01 133.85 325.47 133.01 325.47 134.7"/><polygon class="cls-42" points="333.93 129.82 332.46 130.67 332.46 128.97 333.93 128.13 333.93 129.82"/><polygon class="cls-42" points="318.7 138.61 317.23 139.46 317.23 137.77 318.7 136.92 318.7 138.61"/><polygon class="cls-43" points="297.88 108.01 319.77 120.62 317.76 121.79 295.86 109.18 297.88 108.01"/><polygon class="cls-42" points="296.62 109.61 297.99 108.82 319.13 120.99 319.77 120.62 297.88 108.01 295.86 109.18 296.62 109.61"/><polygon class="cls-43" points="304.01 104.46 325.91 117.07 323.89 118.24 301.99 105.63 304.01 104.46"/><polygon class="cls-42" points="302.75 106.06 304.13 105.27 325.27 117.44 325.91 117.07 304.01 104.46 301.99 105.63 302.75 106.06"/><polygon class="cls-43" points="310.15 100.91 332.04 113.52 330.02 114.69 308.13 102.08 310.15 100.91"/><polygon class="cls-42" points="308.89 102.51 310.26 101.72 331.4 113.89 332.04 113.52 310.15 100.91 308.13 102.08 308.89 102.51"/><path class="cls-43" d="M286.47,141.32a3.18,3.18,0,0,1-1.58-.37l-20.85-12a1.23,1.23,0,0,1-.71-1.06,1.63,1.63,0,0,1,.94-1.32l20.38-11.76a3.92,3.92,0,0,1,3.58-.14l20.85,12a1.24,1.24,0,0,1,.71,1.07,1.6,1.6,0,0,1-.94,1.31l-20.38,11.77A4.15,4.15,0,0,1,286.47,141.32Zm.19-26.51a3.65,3.65,0,0,0-1.74.43L264.55,127c-.42.24-.68.55-.68.84a.74.74,0,0,0,.44.59l20.85,12a3.41,3.41,0,0,0,3-.14l20.37-11.76a1.15,1.15,0,0,0,.68-.84.75.75,0,0,0-.44-.6L288,115.1A2.74,2.74,0,0,0,286.66,114.81Z"/><path class="cls-43" d="M276.82,153.75l-17.2-9.94a1.75,1.75,0,0,1-.75-1.42v-1.27c0-.55.33-.8.75-.57l17.2,9.94a1.79,1.79,0,0,1,.75,1.42v1.28C277.57,153.73,277.23,154,276.82,153.75Z"/><path class="cls-37" d="M304.67,276.44a4.52,4.52,0,0,1-2.26-.53l-85.3-49.24a1.74,1.74,0,0,1-1-1.47,2.27,2.27,0,0,1,1.33-1.84l54.74-31.6a5.63,5.63,0,0,1,5.15-.2l85.29,49.24a1.72,1.72,0,0,1,1,1.47,2.24,2.24,0,0,1-1.33,1.83l-54.74,31.61A6,6,0,0,1,304.67,276.44Zm-2-1a5.08,5.08,0,0,0,4.56-.2L362,243.6a1.74,1.74,0,0,0,1-1.33,1.18,1.18,0,0,0-.69-1l-85.29-49.24a5.08,5.08,0,0,0-4.56.2l-54.75,31.61c-.66.38-1,.86-1,1.33a1.15,1.15,0,0,0,.69,1Z"/><path class="cls-35" d="M304.66,263a4.62,4.62,0,0,1-2.25-.53l-85.3-49.25a1.72,1.72,0,0,1-1-1.46,2.27,2.27,0,0,1,1.33-1.84l54.74-31.61a5.66,5.66,0,0,1,5.15-.2l85.29,49.25a1.72,1.72,0,0,1,1,1.47,2.25,2.25,0,0,1-1.33,1.83l-54.74,31.61A6,6,0,0,1,304.66,263Zm-2-1a5.12,5.12,0,0,0,4.56-.2L362,230.16a1.74,1.74,0,0,0,1-1.33,1.17,1.17,0,0,0-.69-1l-85.29-49.25a5.05,5.05,0,0,0-4.56.21l-54.75,31.6c-.66.39-1,.87-1,1.34a1.17,1.17,0,0,0,.69,1Z"/><path class="cls-46" d="M385.16,149.41l-85-49a2.28,2.28,0,0,0-1.74-.25h0l-1.57.54.55.14a2.56,2.56,0,0,0-.51,1L277.7,164.15a3.77,3.77,0,0,0,1.56,4.2l85,49.05a2.44,2.44,0,0,0,.62.25l-.21.46,1.51-.53h0A2.36,2.36,0,0,0,367.5,216l19.21-62.38A3.77,3.77,0,0,0,385.16,149.41Z"/><path class="cls-47" d="M361.18,219.73l0,0-83.92-48.45a5.38,5.38,0,0,0-4.82.2l-54.22,31.31-1.8-.69.5,2.53h0a1.5,1.5,0,0,0,.81,1l84.69,48.89a5.32,5.32,0,0,0,4.82-.2L361.64,223a2.2,2.2,0,0,0,1.15-1.34h0l.52-2.47Z"/><path class="cls-48" d="M302.55,252.34,217.26,203.1c-1.24-.72-1.09-2,.35-2.8l54.74-31.61a5.38,5.38,0,0,1,4.85-.2l85.3,49.25c1.24.71,1.08,2-.35,2.8l-54.75,31.6A5.38,5.38,0,0,1,302.55,252.34Z"/><path class="cls-42" d="M217.26,201.66l85.29,49.25a5.38,5.38,0,0,0,4.85-.2l54.75-31.61a2.66,2.66,0,0,0,.93-.84c.52.71.2,1.62-.93,2.28l-54.75,31.6a5.38,5.38,0,0,1-4.85.2L217.26,203.1a1.3,1.3,0,0,1-.59-2A1.9,1.9,0,0,0,217.26,201.66Z"/><path class="cls-35" d="M362.77,217.9l-85-49.05a3.77,3.77,0,0,1-1.56-4.19l19.22-62.39a2.18,2.18,0,0,1,3.28-1.4l85,49a3.78,3.78,0,0,1,1.56,4.2L366.05,216.5A2.17,2.17,0,0,1,362.77,217.9Z"/><path class="cls-35" d="M363.94,218.42a2.49,2.49,0,0,1-1.26-.36l-85-49.05a4,4,0,0,1-1.64-4.41l19.21-62.38a2.55,2.55,0,0,1,1.49-1.71,2.33,2.33,0,0,1,2.06.2l85,49.05a4,4,0,0,1,1.64,4.41l-19.21,62.38a2.55,2.55,0,0,1-1.49,1.71A2,2,0,0,1,363.94,218.42Zm-66.36-117.7a1.7,1.7,0,0,0-.67.13,2.2,2.2,0,0,0-1.27,1.48l-19.21,62.38a3.59,3.59,0,0,0,1.47,4l85,49.05a2,2,0,0,0,1.75.18,2.22,2.22,0,0,0,1.27-1.48l19.21-62.39a3.58,3.58,0,0,0-1.47-4l-85-49.05A2.09,2.09,0,0,0,297.58,100.72Z"/><g class="cls-49"><path class="cls-50" d="M259.8,194.07,257,192.44c-.22-.13-.2-.36.07-.51l3.32-1.92a1,1,0,0,1,.89,0l2.82,1.63c.23.13.2.36-.06.51L260.69,194A1,1,0,0,1,259.8,194.07Z"/><path class="cls-50" d="M264.16,196.58,261.34,195c-.23-.13-.2-.35.06-.51l3.33-1.92a1,1,0,0,1,.88,0l2.83,1.62c.22.13.19.36-.07.51L265,196.55A1,1,0,0,1,264.16,196.58Z"/><path class="cls-50" d="M268.52,199.1l-2.83-1.63c-.22-.13-.19-.36.07-.51l3.33-1.92a1,1,0,0,1,.88,0l2.82,1.63c.23.13.2.36-.06.51l-3.33,1.92A1,1,0,0,1,268.52,199.1Z"/><path class="cls-50" d="M274.54,197l-2.82-1.63c-.23-.13-.2-.36.06-.51l2.8-1.61a1,1,0,0,1,.88,0l2.82,1.63c.23.13.2.36-.06.51l-2.8,1.61A1,1,0,0,1,274.54,197Z"/><path class="cls-50" d="M278.9,199.54l-2.82-1.63c-.23-.13-.2-.36.06-.51l2.79-1.62a1,1,0,0,1,.89,0l2.82,1.63c.22.13.2.35-.07.51l-2.79,1.61A1,1,0,0,1,278.9,199.54Z"/><path class="cls-50" d="M283.25,202.05l-2.82-1.63c-.22-.13-.2-.36.07-.51l2.79-1.61a1,1,0,0,1,.88,0l2.82,1.63c.23.13.2.36-.06.51L284.14,202A1,1,0,0,1,283.25,202.05Z"/><path class="cls-50" d="M287.61,204.57l-2.82-1.63c-.23-.13-.2-.36.06-.51l2.8-1.62a1,1,0,0,1,.88,0l2.82,1.63c.23.13.2.36-.06.51l-2.8,1.61A1,1,0,0,1,287.61,204.57Z"/><path class="cls-50" d="M292,207.08l-2.83-1.63c-.22-.13-.19-.36.07-.51l2.79-1.61a1,1,0,0,1,.89,0l2.82,1.63c.22.13.2.36-.07.51L292.85,207A1,1,0,0,1,292,207.08Z"/><path class="cls-50" d="M296.32,209.6,293.5,208c-.23-.13-.2-.36.06-.51l2.8-1.62a1,1,0,0,1,.88,0l2.82,1.63c.23.13.2.36-.06.51l-2.8,1.61A1,1,0,0,1,296.32,209.6Z"/><path class="cls-50" d="M300.68,212.11l-2.82-1.63c-.23-.13-.2-.36.06-.51l2.8-1.61a1,1,0,0,1,.88,0l2.82,1.63c.23.13.2.36-.06.51l-2.8,1.61A1,1,0,0,1,300.68,212.11Z"/><path class="cls-50" d="M305,214.63,302.21,213c-.22-.13-.2-.36.07-.51l2.79-1.62a1,1,0,0,1,.88,0l2.83,1.63c.22.13.19.36-.07.51l-2.79,1.61A1,1,0,0,1,305,214.63Z"/><path class="cls-50" d="M309.39,217.14l-2.82-1.63c-.23-.13-.2-.36.06-.51l2.8-1.61a1,1,0,0,1,.88,0l2.82,1.63c.23.13.2.36-.06.51l-2.8,1.62A1,1,0,0,1,309.39,217.14Z"/><path class="cls-50" d="M313.75,219.66,310.93,218c-.23-.13-.2-.36.06-.51l2.79-1.62a1,1,0,0,1,.89,0l2.82,1.63c.22.13.2.36-.07.51l-2.79,1.61A1,1,0,0,1,313.75,219.66Z"/><path class="cls-50" d="M281,195.83l-2.82-1.63c-.23-.13-.2-.36.06-.51l2.8-1.61a1,1,0,0,1,.88,0l2.82,1.63c.23.13.2.36-.06.51l-2.8,1.61A1,1,0,0,1,281,195.83Z"/><path class="cls-50" d="M276.54,193.28l-2.82-1.63c-.23-.13-.2-.36.06-.51l2.8-1.61a1,1,0,0,1,.88,0l2.82,1.63c.23.13.2.36-.06.51l-2.8,1.61A1,1,0,0,1,276.54,193.28Z"/><path class="cls-50" d="M272.11,190.72,266,187.21c-.22-.13-.19-.36.07-.51l2.79-1.61a1,1,0,0,1,.89,0l6.07,3.51c.23.13.2.36-.06.51l-2.8,1.61A1,1,0,0,1,272.11,190.72Z"/><path class="cls-50" d="M275.2,187.61l-4.93-2.84c-.22-.14-.19-.36.07-.52l2.79-1.61a1,1,0,0,1,.89,0l4.93,2.85c.22.13.19.36-.07.51l-2.79,1.62A1,1,0,0,1,275.2,187.61Z"/><path class="cls-50" d="M285.32,198.35l-2.83-1.63c-.22-.13-.19-.36.07-.51l2.79-1.62a1,1,0,0,1,.89,0l2.82,1.62c.22.14.2.36-.07.52l-2.79,1.61A1,1,0,0,1,285.32,198.35Z"/><path class="cls-50" d="M289.67,200.86l-2.82-1.63c-.23-.13-.2-.36.06-.51l2.8-1.61a1,1,0,0,1,.88,0l2.82,1.63c.23.13.2.36-.06.51l-2.8,1.61A1,1,0,0,1,289.67,200.86Z"/><path class="cls-50" d="M294,203.38l-2.82-1.63c-.23-.13-.2-.36.06-.51l2.8-1.62a1,1,0,0,1,.88,0l2.82,1.63c.23.13.2.35-.06.51l-2.8,1.61A1,1,0,0,1,294,203.38Z"/><path class="cls-50" d="M298.38,205.89l-2.82-1.63c-.22-.13-.2-.36.07-.51l2.79-1.61a1,1,0,0,1,.88,0l2.83,1.63c.22.13.19.36-.07.51l-2.79,1.61A1,1,0,0,1,298.38,205.89Z"/><path class="cls-50" d="M302.74,208.41l-2.82-1.63c-.23-.13-.2-.36.06-.51l2.8-1.62a1,1,0,0,1,.88,0l2.82,1.63c.23.13.2.35-.06.51l-2.8,1.61A1,1,0,0,1,302.74,208.41Z"/><path class="cls-50" d="M307.1,210.92l-2.82-1.63c-.23-.13-.2-.36.06-.51l2.79-1.61a1,1,0,0,1,.89,0l2.82,1.63c.22.13.2.36-.07.51L308,210.88A1,1,0,0,1,307.1,210.92Z"/><path class="cls-50" d="M311.45,213.44l-2.82-1.63c-.22-.13-.2-.36.06-.51l2.8-1.62a1,1,0,0,1,.88,0l2.82,1.63c.23.13.2.35-.06.51l-2.79,1.61A1,1,0,0,1,311.45,213.44Z"/><path class="cls-50" d="M315.81,216,313,214.32c-.23-.13-.2-.36.06-.51l2.8-1.61a1,1,0,0,1,.88,0l2.82,1.63c.23.13.2.36-.06.51l-2.8,1.61A1,1,0,0,1,315.81,216Z"/><path class="cls-50" d="M320.16,218.47l-2.82-1.63c-.22-.13-.19-.36.07-.51l2.79-1.62a1,1,0,0,1,.89,0l2.82,1.63c.22.13.19.35-.07.51l-2.79,1.61A1,1,0,0,1,320.16,218.47Z"/><path class="cls-50" d="M327.91,222.94l-6.16-3.56c-.22-.13-.19-.36.07-.51l2.79-1.61a1,1,0,0,1,.89,0l6.15,3.56c.23.13.2.36-.06.51l-2.8,1.61A1,1,0,0,1,327.91,222.94Z"/><path class="cls-50" d="M336.39,218l-5.19-3c-.23-.13-.2-.36.06-.51l2.79-1.61a1,1,0,0,1,.89,0l5.19,3c.23.13.2.36-.06.51l-2.8,1.61A1,1,0,0,1,336.39,218Z"/><path class="cls-50" d="M292.94,197.85l-2.82-1.63c-.22-.13-.2-.35.07-.51L293,194.1a1,1,0,0,1,.88,0l2.83,1.63c.22.13.19.36-.07.51l-2.79,1.62A1,1,0,0,1,292.94,197.85Z"/><path class="cls-50" d="M288.48,195.28l-2.82-1.63c-.23-.13-.2-.36.06-.51l2.8-1.62a1,1,0,0,1,.88,0l2.82,1.63c.23.13.2.35-.06.51l-2.8,1.61A1,1,0,0,1,288.48,195.28Z"/><path class="cls-50" d="M284,192.7l-2.82-1.63c-.22-.13-.19-.36.07-.51l2.79-1.61a1,1,0,0,1,.89,0l2.82,1.63c.22.13.19.36-.07.51l-2.79,1.61A1,1,0,0,1,284,192.7Z"/><path class="cls-50" d="M279.55,190.12l-2.82-1.63c-.23-.13-.2-.36.06-.51l2.8-1.61a1,1,0,0,1,.88,0l2.82,1.63c.23.13.2.36-.06.51l-2.8,1.61A1,1,0,0,1,279.55,190.12Z"/><path class="cls-50" d="M297.3,200.37l-2.82-1.63c-.23-.13-.2-.36.06-.51l2.8-1.61a1,1,0,0,1,.88,0l2.82,1.63c.23.13.2.36-.06.51l-2.8,1.61A1,1,0,0,1,297.3,200.37Z"/><path class="cls-50" d="M301.66,202.88l-2.82-1.63c-.23-.13-.2-.35.06-.51l2.79-1.61a1,1,0,0,1,.89,0l2.82,1.63c.22.13.2.36-.07.51l-2.79,1.62A1,1,0,0,1,301.66,202.88Z"/><path class="cls-50" d="M306,205.4l-2.82-1.63c-.22-.13-.2-.36.06-.51l2.8-1.61a1,1,0,0,1,.88,0l2.82,1.63c.23.13.2.36-.06.51l-2.79,1.61A1,1,0,0,1,306,205.4Z"/><path class="cls-50" d="M310.37,207.91l-2.82-1.62c-.23-.14-.2-.36.06-.52l2.8-1.61a1,1,0,0,1,.88,0l2.82,1.63c.23.13.2.36-.06.51l-2.8,1.62A1,1,0,0,1,310.37,207.91Z"/><path class="cls-50" d="M314.72,210.43l-2.82-1.63c-.22-.13-.19-.36.07-.51l2.79-1.61a1,1,0,0,1,.89,0l2.82,1.63c.22.13.19.36-.07.51l-2.79,1.61A1,1,0,0,1,314.72,210.43Z"/><path class="cls-50" d="M319.08,212.94l-2.82-1.62c-.23-.14-.2-.36.06-.51l2.8-1.62a1,1,0,0,1,.88,0l2.82,1.63c.23.13.2.36-.06.51l-2.8,1.62A1,1,0,0,1,319.08,212.94Z"/><path class="cls-50" d="M323.44,215.46l-2.82-1.63c-.23-.13-.2-.36.06-.51l2.79-1.61a1,1,0,0,1,.89,0l2.82,1.63c.23.13.2.36-.06.51l-2.8,1.61A1,1,0,0,1,323.44,215.46Z"/><path class="cls-50" d="M327.79,218,325,216.35c-.22-.14-.2-.36.07-.51l2.79-1.62a1,1,0,0,1,.88,0l2.83,1.63c.22.13.19.36-.07.51l-2.79,1.62A1,1,0,0,1,327.79,218Z"/><path class="cls-50" d="M332.15,220.49l-2.82-1.63c-.23-.13-.2-.36.06-.51l2.8-1.61a1,1,0,0,1,.88,0l2.82,1.63c.23.13.2.36-.06.51l-2.8,1.61A1,1,0,0,1,332.15,220.49Z"/><path class="cls-50" d="M290.65,191.63,287.83,190c-.23-.13-.2-.36.06-.51l2.8-1.61a1,1,0,0,1,.88,0l2.82,1.63c.23.13.2.36-.06.51l-2.8,1.62A1,1,0,0,1,290.65,191.63Z"/><path class="cls-50" d="M286.32,189.13l-2.83-1.63c-.22-.13-.19-.36.07-.51l2.79-1.61a1,1,0,0,1,.89,0l2.82,1.63c.22.13.2.36-.07.51l-2.79,1.61A1,1,0,0,1,286.32,189.13Z"/><path class="cls-50" d="M282,186.63,279.16,185c-.23-.13-.2-.36.06-.51l2.8-1.62a1,1,0,0,1,.88,0l2.82,1.63c.23.13.2.36-.06.51l-2.8,1.61A1,1,0,0,1,282,186.63Z"/><path class="cls-50" d="M277.65,184.12l-2.82-1.62c-.23-.13-.2-.36.06-.51l2.79-1.62a1,1,0,0,1,.89,0l2.82,1.62c.22.14.2.36-.07.51l-2.79,1.62A1,1,0,0,1,277.65,184.12Z"/><path class="cls-50" d="M282.1,181.55l-2.82-1.63c-.22-.13-.2-.36.07-.51l.92-.53a1,1,0,0,1,.88,0l2.82,1.63c.23.13.2.36-.06.51l-.92.53A1,1,0,0,1,282.1,181.55Z"/><path class="cls-50" d="M287.76,184.82l-2.82-1.63c-.23-.13-.2-.36.06-.51l.93-.53a1,1,0,0,1,.88,0l2.82,1.63c.23.13.2.36-.06.51l-.93.53A1,1,0,0,1,287.76,184.82Z"/><path class="cls-50" d="M292.08,187.31l-2.82-1.63c-.23-.13-.2-.36.06-.51l.92-.53a1,1,0,0,1,.89,0l2.82,1.63c.22.13.2.36-.07.51l-.92.53A1,1,0,0,1,292.08,187.31Z"/><path class="cls-50" d="M296.39,189.8l-2.82-1.63c-.22-.13-.2-.36.07-.51l.92-.53a1,1,0,0,1,.88,0l2.82,1.63c.23.13.2.36-.06.51l-.92.53A1,1,0,0,1,296.39,189.8Z"/><path class="cls-50" d="M300.71,192.29l-2.82-1.62c-.23-.14-.2-.36.06-.52l.93-.53a1,1,0,0,1,.88,0l2.82,1.63c.23.13.2.36-.06.51l-.93.54A1,1,0,0,1,300.71,192.29Z"/><path class="cls-50" d="M324.81,206.21,322,204.58c-.23-.13-.2-.36.06-.51l.92-.54a1,1,0,0,1,.89,0l2.82,1.63c.23.13.2.36-.06.51l-.93.53A1,1,0,0,1,324.81,206.21Z"/><path class="cls-50" d="M329.12,208.7l-2.82-1.63c-.22-.13-.19-.36.07-.51l.92-.53a1,1,0,0,1,.88,0l2.83,1.63c.22.13.19.36-.07.51l-.92.53A1,1,0,0,1,329.12,208.7Z"/><path class="cls-50" d="M333.44,211.19l-2.82-1.63c-.23-.13-.2-.36.06-.51l.93-.53a1,1,0,0,1,.88,0l2.82,1.63c.23.13.2.36-.06.51l-.93.53A1,1,0,0,1,333.44,211.19Z"/><path class="cls-50" d="M337.76,213.68l-2.82-1.63c-.23-.13-.2-.35.06-.51l.92-.53a1,1,0,0,1,.89,0l2.82,1.63c.22.13.2.36-.07.51l-.92.54A1,1,0,0,1,337.76,213.68Z"/><path class="cls-50" d="M295,194.15l-2.82-1.63c-.23-.13-.2-.36.06-.51L295,190.4a1,1,0,0,1,.89,0l2.82,1.63c.22.13.2.36-.07.51l-2.79,1.61A1,1,0,0,1,295,194.15Z"/><path class="cls-50" d="M299.36,196.66,296.54,195c-.23-.13-.2-.36.06-.51l2.8-1.61a1,1,0,0,1,.88,0l2.82,1.63c.23.13.2.36-.06.51l-2.79,1.62A1,1,0,0,1,299.36,196.66Z"/><path class="cls-50" d="M303.72,199.18l-2.82-1.63c-.23-.13-.2-.36.06-.51l2.8-1.61a1,1,0,0,1,.88,0l2.82,1.63c.23.13.2.36-.06.51l-2.8,1.61A1,1,0,0,1,303.72,199.18Z"/><path class="cls-50" d="M308.07,201.69l-2.82-1.63c-.22-.13-.19-.35.07-.51l2.79-1.61a1,1,0,0,1,.89,0l2.82,1.63c.22.13.19.36-.07.51L309,201.66A1,1,0,0,1,308.07,201.69Z"/><path class="cls-50" d="M312.43,204.21l-2.82-1.63c-.23-.13-.2-.36.06-.51l2.8-1.61a1,1,0,0,1,.88,0l2.82,1.63c.23.13.2.36-.06.51l-2.8,1.61A1,1,0,0,1,312.43,204.21Z"/><path class="cls-50" d="M316.79,206.72,314,205.09c-.23-.13-.2-.35.06-.51l2.79-1.61a1,1,0,0,1,.89,0l2.82,1.63c.23.13.2.36-.06.51l-2.8,1.62A1,1,0,0,1,316.79,206.72Z"/><path class="cls-50" d="M321.14,209.24l-2.82-1.63c-.22-.13-.2-.36.07-.51l2.79-1.61a1,1,0,0,1,.88,0l2.83,1.63c.22.13.19.36-.07.51L322,209.2A1,1,0,0,1,321.14,209.24Z"/><path class="cls-50" d="M325.5,211.75l-2.82-1.63c-.23-.13-.2-.35.06-.51l2.8-1.61a1,1,0,0,1,.88,0l2.82,1.63c.23.13.2.36-.06.51l-2.8,1.62A1,1,0,0,1,325.5,211.75Z"/><path class="cls-50" d="M329.86,214.27,327,212.64c-.23-.13-.2-.36.06-.51l2.79-1.61a1,1,0,0,1,.89,0l2.82,1.63c.22.13.2.36-.07.51l-2.79,1.61A1,1,0,0,1,329.86,214.27Z"/><path class="cls-50" d="M270.1,194.46l-8.31-4.8c-.22-.13-.19-.36.07-.51l2.79-1.61a1,1,0,0,1,.89,0l8.3,4.8c.23.13.2.36-.06.51l-2.8,1.61A1,1,0,0,1,270.1,194.46Z"/><path class="cls-50" d="M323.62,225.36l-8.31-4.8c-.23-.13-.2-.36.06-.51l2.8-1.61a1,1,0,0,1,.88,0l8.31,4.8c.23.13.2.36-.06.51l-2.8,1.61A1,1,0,0,1,323.62,225.36Z"/><path class="cls-50" d="M306.2,220.85l-2.82-1.62c-.23-.14-.2-.36.06-.52l3.33-1.92a1,1,0,0,1,.88,0l2.82,1.62c.23.14.2.36-.06.51l-3.33,1.93A1,1,0,0,1,306.2,220.85Z"/><path class="cls-50" d="M274.56,202.59,270.05,200c-.23-.13-.2-.35.06-.51l3.33-1.92a1,1,0,0,1,.89,0l4.51,2.6c.23.13.2.36-.06.51l-3.33,1.92A1,1,0,0,1,274.56,202.59Z"/><path class="cls-50" d="M302,218.43l-4.51-2.6c-.23-.13-.2-.36.06-.51l3.33-1.93a1,1,0,0,1,.89,0l4.51,2.6c.22.13.19.36-.07.51l-3.33,1.92A1,1,0,0,1,302,218.43Z"/><path class="cls-50" d="M280.85,206.22l-4.51-2.61c-.23-.13-.2-.36.06-.51l3.33-1.92a1,1,0,0,1,.88,0l4.51,2.61c.23.13.2.36-.06.51l-3.33,1.92A1,1,0,0,1,280.85,206.22Z"/><path class="cls-50" d="M280.64,201.16l19.62,11.33a.26.26,0,0,1,0,.5l-3.4,2a1,1,0,0,1-.88,0l-19.61-11.33Z"/><path class="cls-50" d="M318.37,225.41l3.14,1.82c.19.11.17.29-.05.42l-1.36.78a.77.77,0,0,1-.72,0l-3.15-1.81c-.18-.11-.16-.3.06-.42l1.36-.79A.83.83,0,0,1,318.37,225.41Z"/><path class="cls-50" d="M314,222.88l3.14,1.81c.19.11.16.3-.05.42l-1.36.79a.85.85,0,0,1-.73,0l-3.14-1.82c-.18-.1-.16-.29.05-.42l1.37-.78A.77.77,0,0,1,314,222.88Z"/><path class="cls-50" d="M309.62,220.36l3.15,1.82c.18.1.16.29-.06.42l-1.36.78a.77.77,0,0,1-.72,0l-3.14-1.81c-.19-.11-.17-.3.05-.42l1.36-.79A.83.83,0,0,1,309.62,220.36Z"/><path class="cls-50" d="M316.39,221.49l3.14,1.81c.18.11.16.3,0,.42l-1.37.79a.83.83,0,0,1-.72,0l-3.14-1.82c-.19-.1-.17-.29.05-.41l1.36-.79A.82.82,0,0,1,316.39,221.49Z"/></g><path class="cls-51" d="M281.06,230.09a4,4,0,0,1-2-.47L257.17,217a1.53,1.53,0,0,1-.87-1.3,2,2,0,0,1,1.18-1.63l11.27-6.51a5,5,0,0,1,4.55-.18L295.19,220a1.51,1.51,0,0,1,.88,1.3,2,2,0,0,1-1.18,1.63l-11.27,6.51A5.31,5.31,0,0,1,281.06,230.09Zm-1.73-.93a4.44,4.44,0,0,0,4-.17l11.27-6.51c.58-.34.92-.76.92-1.17a1,1,0,0,0-.61-.85L273,207.82a4.5,4.5,0,0,0-4,.18l-11.27,6.51c-.58.34-.91.76-.91,1.17a1,1,0,0,0,.61.84Z"/><path class="cls-42" d="M307.58,124.67l-2.49-1.43a.66.66,0,0,1-.28-.71h0a.37.37,0,0,1,.56-.24l2.49,1.44a.64.64,0,0,1,.27.71h0A.36.36,0,0,1,307.58,124.67Z"/><path class="cls-42" d="M313.5,128.09,309.83,126a.68.68,0,0,1-.28-.72h0a.37.37,0,0,1,.56-.23l3.67,2.12a.64.64,0,0,1,.27.71h0A.36.36,0,0,1,313.5,128.09Z"/><path class="cls-42" d="M302.56,135.74l-2.48-1.44a.64.64,0,0,1-.28-.71h0a.37.37,0,0,1,.56-.23l2.49,1.43a.66.66,0,0,1,.27.72h0A.37.37,0,0,1,302.56,135.74Z"/><path class="cls-42" d="M307.84,138.79l-3.66-2.12a.64.64,0,0,1-.28-.71h0a.37.37,0,0,1,.56-.24l3.66,2.12a.64.64,0,0,1,.28.71h0A.37.37,0,0,1,307.84,138.79Z"/><path class="cls-42" d="M300.13,122.7l-1.55-.89a.66.66,0,0,1-.28-.72h0a.37.37,0,0,1,.56-.23l1.55.9a.64.64,0,0,1,.28.71h0A.37.37,0,0,1,300.13,122.7Z"/><path class="cls-42" d="M304.8,127.73,300.06,125a.66.66,0,0,1-.28-.72h0a.37.37,0,0,1,.56-.23l4.74,2.74a.63.63,0,0,1,.28.71h0A.37.37,0,0,1,304.8,127.73Z"/><path class="cls-42" d="M300.43,129.85l-1.56-.89a.66.66,0,0,1-.27-.72h0a.37.37,0,0,1,.56-.23l1.55.9a.66.66,0,0,1,.28.71h0A.37.37,0,0,1,300.43,129.85Z"/><path class="cls-42" d="M308.41,143.77l-4.14-2.39a.66.66,0,0,1-.28-.72h0a.37.37,0,0,1,.56-.23l4.15,2.39a.66.66,0,0,1,.27.72h0A.37.37,0,0,1,308.41,143.77Z"/><path class="cls-42" d="M298.69,133.5l-1-.57a.68.68,0,0,1-.28-.72h0A.37.37,0,0,1,298,132l1,.57a.68.68,0,0,1,.28.72h0A.37.37,0,0,1,298.69,133.5Z"/><path class="cls-42" d="M297.74,137.61l-1.23-.71a.66.66,0,0,1-.28-.72h0a.37.37,0,0,1,.56-.23l1.24.71a.66.66,0,0,1,.27.72h0A.37.37,0,0,1,297.74,137.61Z"/><path class="cls-42" d="M302.56,140.39l-3.26-1.88a.65.65,0,0,1-.28-.72h0a.37.37,0,0,1,.56-.23l3.26,1.88a.66.66,0,0,1,.28.72h0A.37.37,0,0,1,302.56,140.39Z"/><path class="cls-42" d="M298.26,140.23l-2.35-1.35a.64.64,0,0,1-.27-.71h0a.37.37,0,0,1,.56-.24l2.34,1.36a.64.64,0,0,1,.28.71h0A.37.37,0,0,1,298.26,140.23Z"/><path class="cls-42" d="M312,145.83l-1.51-.87a.64.64,0,0,1-.27-.71h0a.37.37,0,0,1,.56-.23l1.5.87a.64.64,0,0,1,.28.71h0A.37.37,0,0,1,312,145.83Z"/><path class="cls-42" d="M306.2,133.19l-4.14-2.4a.63.63,0,0,1-.28-.71h0a.37.37,0,0,1,.56-.23l4.14,2.39a.64.64,0,0,1,.28.72h0A.37.37,0,0,1,306.2,133.19Z"/><path class="cls-42" d="M306.69,131.15,299.47,127a.64.64,0,0,1-.28-.71h0a.37.37,0,0,1,.56-.23L307,130.2a.64.64,0,0,1,.27.71h0A.37.37,0,0,1,306.69,131.15Z"/><path class="cls-42" d="M302.43,133.34l-4.15-2.4a.64.64,0,0,1-.27-.71h0a.36.36,0,0,1,.55-.24l4.15,2.4a.64.64,0,0,1,.28.71h0A.37.37,0,0,1,302.43,133.34Z"/><path class="cls-42" d="M309.35,135l-1.51-.87a.66.66,0,0,1-.28-.71h0a.37.37,0,0,1,.56-.23l1.51.87a.66.66,0,0,1,.28.71h0A.37.37,0,0,1,309.35,135Z"/><path class="cls-42" d="M321.06,132.44l-5.31-3.05a.66.66,0,0,1-.28-.71h0a.37.37,0,0,1,.56-.23l5.31,3.05a.64.64,0,0,1,.28.71h0A.37.37,0,0,1,321.06,132.44Z"/><path class="cls-42" d="M302.08,137.79l-5-2.88a.64.64,0,0,1-.28-.71h0a.37.37,0,0,1,.56-.24l5,2.88a.64.64,0,0,1,.27.72h0A.37.37,0,0,1,302.08,137.79Z"/><path class="cls-42" d="M302.83,121.94l-3.66-2.12a.66.66,0,0,1-.28-.71h0a.37.37,0,0,1,.56-.24l3.67,2.12a.64.64,0,0,1,.27.72h0A.37.37,0,0,1,302.83,121.94Z"/><path class="cls-42" d="M297.49,142.12l-4.24-2.45A.66.66,0,0,1,293,139h0a.37.37,0,0,1,.56-.23l4.25,2.45a.64.64,0,0,1,.27.72h0A.37.37,0,0,1,297.49,142.12Z"/><path class="cls-42" d="M301.08,146.66l-2.49-1.43a.66.66,0,0,1-.28-.72h0a.37.37,0,0,1,.56-.23l2.49,1.44a.64.64,0,0,1,.27.71h0A.36.36,0,0,1,301.08,146.66Z"/><path class="cls-42" d="M307,150.08,303.33,148a.68.68,0,0,1-.28-.72h0a.37.37,0,0,1,.56-.23l3.67,2.11a.66.66,0,0,1,.27.72h0A.36.36,0,0,1,307,150.08Z"/><path class="cls-42" d="M296.06,157.73l-2.48-1.44a.64.64,0,0,1-.28-.71h0a.37.37,0,0,1,.56-.23l2.49,1.43a.64.64,0,0,1,.27.72h0A.37.37,0,0,1,296.06,157.73Z"/><path class="cls-42" d="M301.34,160.78l-3.66-2.12a.65.65,0,0,1-.28-.72h0a.37.37,0,0,1,.56-.23l3.66,2.12a.64.64,0,0,1,.28.71h0A.37.37,0,0,1,301.34,160.78Z"/><path class="cls-42" d="M293.63,144.69l-1.55-.9a.64.64,0,0,1-.28-.71h0a.37.37,0,0,1,.56-.23l1.55.89a.66.66,0,0,1,.28.72h0A.37.37,0,0,1,293.63,144.69Z"/><path class="cls-42" d="M298.3,149.72,293.56,147a.66.66,0,0,1-.28-.72h0a.37.37,0,0,1,.56-.23l4.75,2.74a.64.64,0,0,1,.27.71h0A.37.37,0,0,1,298.3,149.72Z"/><path class="cls-42" d="M293.93,151.84l-1.56-.89a.66.66,0,0,1-.27-.72h0a.37.37,0,0,1,.56-.23l1.55.89a.68.68,0,0,1,.28.72h0A.37.37,0,0,1,293.93,151.84Z"/><path class="cls-42" d="M301.91,165.76l-4.14-2.4a.64.64,0,0,1-.28-.71h0a.37.37,0,0,1,.56-.23l4.15,2.39a.64.64,0,0,1,.27.72h0A.37.37,0,0,1,301.91,165.76Z"/><path class="cls-42" d="M292.19,155.49l-1-.58a.66.66,0,0,1-.28-.71h0a.37.37,0,0,1,.56-.23l1,.57a.68.68,0,0,1,.28.72h0A.37.37,0,0,1,292.19,155.49Z"/><path class="cls-42" d="M291.24,159.6l-1.23-.72a.64.64,0,0,1-.28-.71h0a.37.37,0,0,1,.56-.23l1.24.71a.64.64,0,0,1,.27.72h0A.37.37,0,0,1,291.24,159.6Z"/><path class="cls-42" d="M296.06,162.38l-3.26-1.89a.64.64,0,0,1-.28-.71h0a.37.37,0,0,1,.56-.23l3.26,1.88a.65.65,0,0,1,.28.72h0A.37.37,0,0,1,296.06,162.38Z"/><path class="cls-42" d="M291.76,162.22l-2.35-1.35a.64.64,0,0,1-.27-.72h0a.37.37,0,0,1,.56-.23l2.34,1.36a.64.64,0,0,1,.28.71h0A.37.37,0,0,1,291.76,162.22Z"/><path class="cls-42" d="M305.47,167.82,304,167a.64.64,0,0,1-.27-.71h0a.37.37,0,0,1,.56-.23l1.5.87a.64.64,0,0,1,.28.71h0A.37.37,0,0,1,305.47,167.82Z"/><path class="cls-42" d="M299.7,155.18l-4.14-2.4a.64.64,0,0,1-.28-.71h0a.37.37,0,0,1,.56-.24l4.15,2.4a.64.64,0,0,1,.27.71h0A.37.37,0,0,1,299.7,155.18Z"/><path class="cls-42" d="M300.19,153.13,293,149a.64.64,0,0,1-.28-.71h0a.37.37,0,0,1,.56-.24l7.23,4.18a.64.64,0,0,1,.27.71h0A.37.37,0,0,1,300.19,153.13Z"/><path class="cls-42" d="M295.93,155.32l-4.15-2.39a.64.64,0,0,1-.27-.71h0a.37.37,0,0,1,.56-.24l4.14,2.4a.64.64,0,0,1,.28.71h0A.37.37,0,0,1,295.93,155.32Z"/><path class="cls-42" d="M302.85,157l-1.51-.87a.66.66,0,0,1-.28-.71h0a.37.37,0,0,1,.56-.23l1.51.86a.68.68,0,0,1,.28.72h0A.37.37,0,0,1,302.85,157Z"/><path class="cls-42" d="M295.58,159.78l-5-2.88a.65.65,0,0,1-.28-.72h0a.37.37,0,0,1,.56-.23l5,2.88a.64.64,0,0,1,.27.71h0A.37.37,0,0,1,295.58,159.78Z"/><path class="cls-42" d="M296.33,143.93l-3.66-2.12a.66.66,0,0,1-.28-.71h0a.37.37,0,0,1,.56-.24l3.67,2.12a.64.64,0,0,1,.27.71h0A.37.37,0,0,1,296.33,143.93Z"/><path class="cls-42" d="M291,164.11l-4.24-2.45a.68.68,0,0,1-.28-.72h0a.37.37,0,0,1,.56-.23l4.25,2.45a.64.64,0,0,1,.27.71h0A.37.37,0,0,1,291,164.11Z"/><path class="cls-42" d="M358.67,202.85a3.08,3.08,0,0,1-1.55-.43l-39.87-23a4.8,4.8,0,0,1-2-5.32l11.2-36.7a3,3,0,0,1,1.75-2,2.86,2.86,0,0,1,2.53.25l39.87,23a4.8,4.8,0,0,1,2,5.31l-11.2,36.71a3,3,0,0,1-1.75,2A2.78,2.78,0,0,1,358.67,202.85Zm-1.37-.75a2.54,2.54,0,0,0,2.21.23,2.67,2.67,0,0,0,1.54-1.78l11.2-36.71a4.4,4.4,0,0,0-1.86-4.89l-39.88-23a2.47,2.47,0,0,0-2.21-.23,2.66,2.66,0,0,0-1.53,1.78l-11.21,36.71a4.43,4.43,0,0,0,1.87,4.89Z"/><path class="cls-42" d="M364.86,171.33a2.26,2.26,0,0,1-1.1-.31l-34.87-20.14a3.36,3.36,0,0,1-1.43-3.72l1.43-4.67a2.14,2.14,0,0,1,1.24-1.43,2,2,0,0,1,1.79.18l34.87,20.14a3.36,3.36,0,0,1,1.43,3.72l-1.43,4.67a2.14,2.14,0,0,1-1.24,1.43A2,2,0,0,1,364.86,171.33Zm-34-30a1.54,1.54,0,0,0-.56.1,1.78,1.78,0,0,0-1,1.19l-1.43,4.68a3,3,0,0,0,1.26,3.3L364,170.7a1.66,1.66,0,0,0,1.47.16,1.76,1.76,0,0,0,1-1.19l1.43-4.68a3,3,0,0,0-1.26-3.3l-34.88-20.13A1.75,1.75,0,0,0,330.82,141.3Z"/><path class="cls-42" d="M360,183.54l-6.54-3.77a3.15,3.15,0,0,1-1.34-3.51l1.42-4.68a1.82,1.82,0,0,1,2.76-1.14l6.54,3.77a3.17,3.17,0,0,1,1.34,3.51l-1.42,4.68A1.83,1.83,0,0,1,360,183.54Z"/><path class="cls-42" d="M357.12,196.69a2.23,2.23,0,0,1-1.09-.31l-6.54-3.78a3.36,3.36,0,0,1-1.43-3.72l1.43-4.67a2.14,2.14,0,0,1,1.24-1.43,2,2,0,0,1,1.79.18l6.53,3.78a3.36,3.36,0,0,1,1.43,3.72l-1.43,4.67a2.16,2.16,0,0,1-1.24,1.43A2,2,0,0,1,357.12,196.69ZM351.42,183a1.54,1.54,0,0,0-.56.1,1.76,1.76,0,0,0-1,1.19L348.41,189a3,3,0,0,0,1.26,3.3l6.54,3.77a1.66,1.66,0,0,0,1.47.16,1.78,1.78,0,0,0,1-1.2l1.43-4.67a3,3,0,0,0-1.26-3.3l-6.54-3.78A1.84,1.84,0,0,0,351.42,183Z"/><path class="cls-42" d="M341.86,188.36a2.26,2.26,0,0,1-1.1-.31L321,176.65a3.36,3.36,0,0,1-1.42-3.72L325,155.17a2.14,2.14,0,0,1,1.24-1.43,2,2,0,0,1,1.79.18l19.74,11.4a3.37,3.37,0,0,1,1.42,3.72l-5.42,17.76a2.12,2.12,0,0,1-1.24,1.42A1.85,1.85,0,0,1,341.86,188.36Zm-.92-.63a1.71,1.71,0,0,0,1.48.16,1.8,1.8,0,0,0,1-1.2l5.42-17.76a3,3,0,0,0-1.26-3.3l-19.74-11.4a1.68,1.68,0,0,0-1.47-.15,1.76,1.76,0,0,0-1,1.19L320,173a3,3,0,0,0,1.25,3.3Z"/><path class="cls-42" d="M369.17,151a1.3,1.3,0,0,1-.65-.18,1.4,1.4,0,0,1-.64-1.71,1.06,1.06,0,0,1,.63-.58,1.23,1.23,0,0,1,1,.13,1.39,1.39,0,0,1,.64,1.71h0a1,1,0,0,1-.63.57A1,1,0,0,1,369.17,151Zm-.3-2.16a.61.61,0,0,0-.24,0,.66.66,0,0,0-.42.38,1,1,0,0,0,.49,1.24.87.87,0,0,0,.71.1.73.73,0,0,0,.41-.38h0a1,1,0,0,0-.49-1.25A1,1,0,0,0,368.87,148.85Z"/><path class="cls-42" d="M372.05,152.65a1.37,1.37,0,0,1-.65-.17,1.41,1.41,0,0,1-.64-1.71,1,1,0,0,1,.63-.58,1.23,1.23,0,0,1,1,.12A1.4,1.4,0,0,1,373,152h0a1,1,0,0,1-.63.58A1.34,1.34,0,0,1,372.05,152.65Zm-.31-2.15a1,1,0,0,0-.24,0,.73.73,0,0,0-.41.38,1,1,0,0,0,.49,1.25.9.9,0,0,0,.71.09.67.67,0,0,0,.41-.38h0a1,1,0,0,0-.49-1.24A.9.9,0,0,0,371.74,150.5Z"/><path class="cls-42" d="M375.74,153.59a.93.93,0,0,1-1.37.37,1.21,1.21,0,0,1-.57-1.48,1,1,0,0,1,1.38-.37A1.2,1.2,0,0,1,375.74,153.59Z"/><polygon class="cls-42" points="328.36 166.49 326.18 165.23 323.45 174.17 325.63 175.42 328.36 166.49"/><polygon class="cls-42" points="332.54 171.09 330.36 169.83 328.2 176.9 330.38 178.16 332.54 171.09"/><polygon class="cls-42" points="338.73 169.09 336.55 167.84 332.95 179.64 335.13 180.9 338.73 169.09"/><polygon class="cls-42" points="344.9 167.18 342.72 165.92 337.7 182.38 339.88 183.63 344.9 167.18"/><path class="cls-35" d="M286.79,344.21a9.36,9.36,0,0,1-4.61-1.11l-31-17.89a3,3,0,0,1,0-5.65L305,288.47a10.22,10.22,0,0,1,9.22,0l31,17.9a3,3,0,0,1,0,5.65L291.4,343.11A9.52,9.52,0,0,1,286.79,344.21Zm22.84-56.27a8.79,8.79,0,0,0-4.32,1l-53.84,31.09a2.44,2.44,0,0,0,0,4.65l31,17.89a9.59,9.59,0,0,0,8.65,0l53.83-31.09a2.44,2.44,0,0,0,0-4.65L314,289A8.82,8.82,0,0,0,309.63,287.94Z"/><path class="cls-52" d="M347.09,299.41h0V284.55l-18.77,2.51-14.06-8.12a9.91,9.91,0,0,0-8.94,0l-25.19,14.55-30.49,4.07v15.13h0a3.18,3.18,0,0,0,1.84,2.5l31,17.89a9.83,9.83,0,0,0,8.93,0L345.24,302a3.15,3.15,0,0,0,1.83-2.49h0Z"/><path class="cls-53" d="M345.24,281.86l-31-17.89a9.91,9.91,0,0,0-8.94,0l-53.83,31.08c-2.47,1.43-2.47,3.74,0,5.16l31,17.89a9.83,9.83,0,0,0,8.93,0L345.24,287C347.71,285.6,347.71,283.29,345.24,281.86Z"/><path class="cls-42" d="M345.24,286.12,291.4,317.2a9.83,9.83,0,0,1-8.93,0l-31-17.89a3.43,3.43,0,0,1-1.8-2.13c-.23,1.08.37,2.2,1.8,3l31,17.89a9.83,9.83,0,0,0,8.93,0L345.24,287c1.43-.83,2-1.95,1.79-3A3.41,3.41,0,0,1,345.24,286.12Z"/><polygon class="cls-42" points="309.56 313.76 308.1 314.6 308.1 312.91 309.56 312.06 309.56 313.76"/><polygon class="cls-42" points="312.63 311.99 311.17 312.83 311.17 311.14 312.63 310.29 312.63 311.99"/><polygon class="cls-42" points="315.7 310.21 314.24 311.06 314.24 309.37 315.7 308.52 315.7 310.21"/><polygon class="cls-42" points="313.19 315.09 311.73 315.94 311.73 314.25 313.19 313.4 313.19 315.09"/><polygon class="cls-42" points="315.9 313.53 314.43 314.38 314.43 312.69 315.9 311.84 315.9 313.53"/><polygon class="cls-42" points="325.55 304.53 324.08 305.38 324.08 303.68 325.55 302.83 325.55 304.53"/><polygon class="cls-42" points="334.01 299.65 332.54 300.49 332.54 298.8 334.01 297.95 334.01 299.65"/><polygon class="cls-42" points="318.77 308.44 317.31 309.29 317.31 307.59 318.77 306.75 318.77 308.44"/><polygon class="cls-43" points="297.95 277.83 319.85 290.45 317.83 291.62 295.94 279 297.95 277.83"/><polygon class="cls-42" points="296.69 279.44 298.07 278.64 319.21 290.82 319.85 290.45 297.95 277.83 295.94 279 296.69 279.44"/><polygon class="cls-43" points="304.09 274.29 325.99 286.9 323.97 288.07 302.07 275.45 304.09 274.29"/><polygon class="cls-42" points="302.83 275.89 304.2 275.1 325.34 287.27 325.99 286.9 304.09 274.29 302.07 275.45 302.83 275.89"/><polygon class="cls-43" points="310.22 270.74 332.12 283.35 330.1 284.52 308.2 271.9 310.22 270.74"/><polygon class="cls-42" points="308.96 272.34 310.34 271.55 331.48 283.72 332.12 283.35 310.22 270.74 308.2 271.9 308.96 272.34"/><path class="cls-43" d="M286.54,311.15a3.14,3.14,0,0,1-1.57-.37l-20.86-12a1.22,1.22,0,0,1-.7-1.06,1.63,1.63,0,0,1,.94-1.32l20.38-11.76a3.92,3.92,0,0,1,3.58-.14l20.85,12a1.23,1.23,0,0,1,.71,1.06,1.64,1.64,0,0,1-.95,1.32l-20.37,11.76A4.09,4.09,0,0,1,286.54,311.15Zm-1.3-.84a3.42,3.42,0,0,0,3-.14l20.38-11.76c.42-.25.67-.56.67-.85a.73.73,0,0,0-.43-.59l-20.86-12a3.42,3.42,0,0,0-3,.14l-20.38,11.76c-.42.25-.67.56-.67.85a.75.75,0,0,0,.44.59Z"/><path class="cls-43" d="M276.9,323.58l-17.21-9.94a1.78,1.78,0,0,1-.74-1.42v-1.28c0-.55.33-.8.74-.56l17.21,9.93a1.8,1.8,0,0,1,.74,1.43V323C277.64,323.56,277.31,323.81,276.9,323.58Z"/><path class="cls-35" d="M138.7,259.38a9.53,9.53,0,0,1-4.66-1.11l-31-17.89a3.1,3.1,0,0,1,0-5.82l53.84-31.09a10.32,10.32,0,0,1,9.31,0l31,17.9a3.1,3.1,0,0,1,0,5.82l-53.84,31.08A9.52,9.52,0,0,1,138.7,259.38Zm22.84-56.26a8.77,8.77,0,0,0-4.28,1l-53.83,31.08a2.35,2.35,0,0,0,0,4.49l31,17.9a9.47,9.47,0,0,0,8.55,0l53.84-31.09a2.35,2.35,0,0,0,0-4.49l-31-17.89A8.73,8.73,0,0,0,161.54,203.12Z"/><path class="cls-54" d="M199,214.5h0V199.64l-18.77,2.5L166.16,194a9.91,9.91,0,0,0-8.94,0L132,208.57l-30.49,4.07v15.13h0a3.18,3.18,0,0,0,1.84,2.49l31,17.9a9.89,9.89,0,0,0,8.93,0l53.84-31.09a3.14,3.14,0,0,0,1.83-2.48h0Z"/><path class="cls-55" d="M197.15,197l-31-17.9a9.89,9.89,0,0,0-8.93,0l-53.83,31.08c-2.47,1.43-2.47,3.74,0,5.16l31,17.9a9.89,9.89,0,0,0,8.93,0l53.84-31.09C199.62,200.68,199.61,198.37,197.15,197Z"/><path class="cls-42" d="M197.15,201.2l-53.84,31.08a9.83,9.83,0,0,1-8.93,0l-31-17.89a3.43,3.43,0,0,1-1.8-2.13c-.23,1.08.37,2.2,1.8,3l31,17.9a9.89,9.89,0,0,0,8.93,0l53.84-31.09c1.43-.82,2-1.95,1.79-3A3.38,3.38,0,0,1,197.15,201.2Z"/><polygon class="cls-42" points="161.47 228.84 160.01 229.69 160.01 227.99 161.47 227.15 161.47 228.84"/><polygon class="cls-42" points="164.54 227.07 163.08 227.91 163.08 226.22 164.54 225.37 164.54 227.07"/><polygon class="cls-42" points="167.61 225.29 166.15 226.14 166.15 224.45 167.61 223.6 167.61 225.29"/><polygon class="cls-42" points="165.1 230.18 163.64 231.02 163.64 229.33 165.1 228.48 165.1 230.18"/><polygon class="cls-42" points="167.81 228.62 166.34 229.46 166.34 227.77 167.81 226.92 167.81 228.62"/><polygon class="cls-42" points="177.46 219.61 175.99 220.46 175.99 218.76 177.46 217.92 177.46 219.61"/><polygon class="cls-42" points="185.92 214.73 184.45 215.57 184.45 213.88 185.92 213.03 185.92 214.73"/><polygon class="cls-42" points="170.68 223.52 169.22 224.37 169.22 222.68 170.68 221.83 170.68 223.52"/><polygon class="cls-43" points="149.86 192.92 171.76 205.53 169.74 206.7 147.84 194.09 149.86 192.92"/><polygon class="cls-42" points="148.6 194.52 149.98 193.73 171.12 205.9 171.76 205.53 149.86 192.92 147.84 194.09 148.6 194.52"/><polygon class="cls-43" points="156 189.37 177.89 201.98 175.88 203.15 153.98 190.53 156 189.37"/><polygon class="cls-42" points="154.74 190.97 156.11 190.18 177.25 202.35 177.89 201.98 156 189.37 153.98 190.53 154.74 190.97"/><polygon class="cls-43" points="162.13 185.82 184.03 198.43 182.01 199.6 160.11 186.99 162.13 185.82"/><polygon class="cls-42" points="160.87 187.42 162.25 186.63 183.39 198.8 184.03 198.43 162.13 185.82 160.11 186.99 160.87 187.42"/><path class="cls-43" d="M138.45,226.23a3.18,3.18,0,0,1-1.58-.37l-20.85-12a1.25,1.25,0,0,1-.71-1.06,1.64,1.64,0,0,1,1-1.32l20.38-11.76a3.92,3.92,0,0,1,3.58-.14l20.85,12a1.23,1.23,0,0,1,.71,1.06,1.64,1.64,0,0,1-.95,1.32l-20.38,11.77A4.12,4.12,0,0,1,138.45,226.23Zm-1.3-.84a3.39,3.39,0,0,0,3-.14l20.38-11.76c.42-.25.67-.56.67-.85a.76.76,0,0,0-.43-.59l-20.86-12a3.42,3.42,0,0,0-3,.14l-20.38,11.76c-.42.25-.67.56-.67.85a.74.74,0,0,0,.44.59Z"/><path class="cls-43" d="M128.81,238.66l-17.21-9.94a1.76,1.76,0,0,1-.74-1.42V226c0-.54.33-.8.74-.56l17.21,9.94a1.76,1.76,0,0,1,.74,1.42v1.27C129.55,238.64,129.22,238.89,128.81,238.66Z"/><circle class="cls-56" cx="201.2" cy="105.23" r="6.21"/><circle class="cls-57" cx="201.2" cy="105.23" r="3.05"/><circle class="cls-56" cx="201.2" cy="250.61" r="6.21"/><circle class="cls-57" cx="201.2" cy="250.61" r="3.05"/><circle class="cls-56" cx="376.27" cy="225.58" r="4.36"/><circle class="cls-57" cx="376.27" cy="225.58" r="2.14"/><path class="cls-56" d="M265.65,132.52a3.38,3.38,0,1,1-3.38-3.37A3.38,3.38,0,0,1,265.65,132.52Z"/><path class="cls-57" d="M263.93,132.52a1.66,1.66,0,1,1-1.66-1.66A1.66,1.66,0,0,1,263.93,132.52Z"/><path class="cls-56" d="M391.09,268.79a1.83,1.83,0,1,1-1.83-1.83A1.83,1.83,0,0,1,391.09,268.79Z"/><circle class="cls-56" cx="375.34" cy="168.04" r="1.02"/><path class="cls-56" d="M213.47,248a1,1,0,1,1-1-1A1,1,0,0,1,213.47,248Z"/></g></g></svg>